REM DIRINDEX 1\2\6,1\2\7,1\2\8,1\3\9,1\3\10,1\3\11,1\4\12,1\4\13,1\4\14,1\5\15,1\5\16,1\5\17,1\5\18
REM DIRNAME folder01,folder02,folder03,folder04,folder05,folder06,folder07,folder08,folder09,folder10,folder11,folder12,folder13,folder14,folder15,folder16,folder17,folder18
TITLE ""
FILE "" MP3
  TRACK 01 AUDIO
    TITLE "16:cjc019_5112"
    INDEX 01 00:00:00
  TRACK 02 AUDIO
    TITLE "0:"
    INDEX 01 00:00:68
  TRACK 03 AUDIO
    TITLE "18:cjc019_5113"
    INDEX 01 00:01:60
  TRACK 04 AUDIO
    TITLE "0:"
    INDEX 01 00:05:44
  TRACK 05 AUDIO
    TITLE "17:cjc019_5114"
    INDEX 01 00:06:26
  TRACK 06 AUDIO
    TITLE "0:"
    INDEX 01 00:07:31
  TRACK 07 AUDIO
    TITLE "16:cjc019_5115"
    INDEX 01 00:09:12
  TRACK 08 AUDIO
    TITLE "0:"
    INDEX 01 00:10:41
  TRACK 09 AUDIO
    TITLE "18:cjc019_5116"
    INDEX 01 00:11:29
  TRACK 10 AUDIO
    TITLE "0:"
    INDEX 01 00:17:14
  TRACK 11 AUDIO
    TITLE "17:cjc019_5117"
    INDEX 01 00:17:65
  TRACK 12 AUDIO
    TITLE "0:"
    INDEX 01 00:19:16
  TRACK 13 AUDIO
    TITLE "16:cjc019_5118"
    INDEX 01 00:20:69
  TRACK 14 AUDIO
    TITLE "0:"
    INDEX 01 00:22:05
  TRACK 15 AUDIO
    TITLE "18:cjc019_5119"
    INDEX 01 00:22:64
  TRACK 16 AUDIO
    TITLE "0:"
    INDEX 01 00:23:65
  TRACK 17 AUDIO
    TITLE "17:cjc019_5120"
    INDEX 01 00:24:39
  TRACK 18 AUDIO
    TITLE "0:"
    INDEX 01 00:25:52
  TRACK 19 AUDIO
    TITLE "16:cjc019_5121"
    INDEX 01 00:27:38
  TRACK 20 AUDIO
    TITLE "0:"
    INDEX 01 00:28:43
  TRACK 21 AUDIO
    TITLE "18:cjc019_5122"
    INDEX 01 00:29:33
  TRACK 22 AUDIO
    TITLE "0:"
    INDEX 01 00:32:70
  TRACK 23 AUDIO
    TITLE "17:cjc019_5123"
    INDEX 01 00:33:58
  TRACK 24 AUDIO
    TITLE "0:"
    INDEX 01 00:34:65
  TRACK 25 AUDIO
    TITLE "16:cjc019_5124"
    INDEX 01 00:36:44
  TRACK 26 AUDIO
    TITLE "0:"
    INDEX 01 00:37:73
  TRACK 27 AUDIO
    TITLE "18:cjc019_5125"
    INDEX 01 00:38:49
  TRACK 28 AUDIO
    TITLE "0:"
    INDEX 01 00:41:34
  TRACK 29 AUDIO
    TITLE "17:cjc019_5126"
    INDEX 01 00:42:12
  TRACK 30 AUDIO
    TITLE "0:"
    INDEX 01 00:43:42
  TRACK 31 AUDIO
    TITLE "16:cjc019_5127"
    INDEX 01 00:45:24
  TRACK 32 AUDIO
    TITLE "0:"
    INDEX 01 00:46:64
  TRACK 33 AUDIO
    TITLE "18:cjc019_5128"
    INDEX 01 00:47:48
  TRACK 34 AUDIO
    TITLE "0:"
    INDEX 01 00:48:67
  TRACK 35 AUDIO
    TITLE "17:cjc019_5129"
    INDEX 01 00:49:49
  TRACK 36 AUDIO
    TITLE "0:"
    INDEX 01 00:51:11
  TRACK 37 AUDIO
    TITLE "16:cjc019_5130"
    INDEX 01 00:52:69
  TRACK 38 AUDIO
    TITLE "0:"
    INDEX 01 00:54:19
  TRACK 39 AUDIO
    TITLE "18:cjc019_5131"
    INDEX 01 00:54:68
  TRACK 40 AUDIO
    TITLE "0:"
    INDEX 01 00:56:02
  TRACK 41 AUDIO
    TITLE "17:cjc019_5132"
    INDEX 01 00:56:55
  TRACK 42 AUDIO
    TITLE "0:"
    INDEX 01 00:58:05
  TRACK 43 AUDIO
    TITLE "16:cjc019_5133"
    INDEX 01 00:59:63
  TRACK 44 AUDIO
    TITLE "0:"
    INDEX 01 01:01:01
  TRACK 45 AUDIO
    TITLE "18:cjc019_5134"
    INDEX 01 01:01:60
  TRACK 46 AUDIO
    TITLE "0:"
    INDEX 01 01:02:55
  TRACK 47 AUDIO
    TITLE "17:cjc019_5135"
    INDEX 01 01:03:33
  TRACK 48 AUDIO
    TITLE "0:"
    INDEX 01 01:04:52
  TRACK 49 AUDIO
    TITLE "16:cjc019_5136"
    INDEX 01 01:06:30
  TRACK 50 AUDIO
    TITLE "0:"
    INDEX 01 01:07:37
  TRACK 51 AUDIO
    TITLE "18:cjc019_5137"
    INDEX 01 01:08:19
  TRACK 52 AUDIO
    TITLE "0:"
    INDEX 01 01:10:53
  TRACK 53 AUDIO
    TITLE "17:cjc019_5138"
    INDEX 01 01:11:31
  TRACK 54 AUDIO
    TITLE "0:"
    INDEX 01 01:12:40
  TRACK 55 AUDIO
    TITLE "16:cjc019_5139"
    INDEX 01 01:14:21
  TRACK 56 AUDIO
    TITLE "0:"
    INDEX 01 01:15:31
  TRACK 57 AUDIO
    TITLE "18:cjc019_5140"
    INDEX 01 01:16:11
  TRACK 58 AUDIO
    TITLE "0:"
    INDEX 01 01:19:46
  TRACK 59 AUDIO
    TITLE "17:cjc019_5141"
    INDEX 01 01:20:28
  TRACK 60 AUDIO
    TITLE "0:"
    INDEX 01 01:21:39
  TRACK 61 AUDIO
    TITLE "16:cjc019_5142"
    INDEX 01 01:23:16
  TRACK 62 AUDIO
    TITLE "0:"
    INDEX 01 01:24:34
  TRACK 63 AUDIO
    TITLE "18:cjc019_5143"
    INDEX 01 01:25:13
  TRACK 64 AUDIO
    TITLE "0:"
    INDEX 01 01:26:23
  TRACK 65 AUDIO
    TITLE "17:cjc019_5144"
    INDEX 01 01:27:01
  TRACK 66 AUDIO
    TITLE "0:"
    INDEX 01 01:28:20
  TRACK 67 AUDIO
    TITLE "16:cjc019_5145"
    INDEX 01 01:30:01
  TRACK 68 AUDIO
    TITLE "0:"
    INDEX 01 01:31:14
  TRACK 69 AUDIO
    TITLE "18:cjc019_5146"
    INDEX 01 01:31:69
  TRACK 70 AUDIO
    TITLE "0:"
    INDEX 01 01:34:12
  TRACK 71 AUDIO
    TITLE "17:cjc019_5147"
    INDEX 01 01:34:65
  TRACK 72 AUDIO
    TITLE "0:"
    INDEX 01 01:36:03
  TRACK 73 AUDIO
    TITLE "16:cjc019_5148"
    INDEX 01 01:37:58
  TRACK 74 AUDIO
    TITLE "0:"
    INDEX 01 01:38:71
  TRACK 75 AUDIO
    TITLE "18:cjc019_5149"
    INDEX 01 01:39:53
  TRACK 76 AUDIO
    TITLE "0:"
    INDEX 01 01:42:04
  TRACK 77 AUDIO
    TITLE "17:cjc019_5150"
    INDEX 01 01:42:55
  TRACK 78 AUDIO
    TITLE "0:"
    INDEX 01 01:43:74
  TRACK 79 AUDIO
    TITLE "16:cjc019_5151"
    INDEX 01 01:45:55
  TRACK 80 AUDIO
    TITLE "0:"
    INDEX 01 01:46:65
  TRACK 81 AUDIO
    TITLE "18:cjc019_5152"
    INDEX 01 01:47:46
  TRACK 82 AUDIO
    TITLE "0:"
    INDEX 01 01:50:74
  TRACK 83 AUDIO
    TITLE "17:cjc019_5153"
    INDEX 01 01:51:50
  TRACK 84 AUDIO
    TITLE "0:"
    INDEX 01 01:52:61
  TRACK 85 AUDIO
    TITLE "16:cjc019_5154"
    INDEX 01 01:54:37
  TRACK 86 AUDIO
    TITLE "0:"
    INDEX 01 01:55:62
  TRACK 87 AUDIO
    TITLE "18:cjc019_5155"
    INDEX 01 01:56:39
  TRACK 88 AUDIO
    TITLE "0:"
    INDEX 01 01:57:49
  TRACK 89 AUDIO
    TITLE "17:cjc019_5156"
    INDEX 01 01:58:25
  TRACK 90 AUDIO
    TITLE "0:"
    INDEX 01 01:59:51
  TRACK 91 AUDIO
    TITLE "16:cjc019_5157"
    INDEX 01 02:01:33
  TRACK 92 AUDIO
    TITLE "0:"
    INDEX 01 02:02:67
  TRACK 93 AUDIO
    TITLE "18:cjc019_5158"
    INDEX 01 02:03:47
  TRACK 94 AUDIO
    TITLE "0:"
    INDEX 01 02:06:46
  TRACK 95 AUDIO
    TITLE "17:cjc019_5159"
    INDEX 01 02:07:22
  TRACK 96 AUDIO
    TITLE "0:"
    INDEX 01 02:08:56
  TRACK 97 AUDIO
    TITLE "16:cjc019_5160"
    INDEX 01 02:10:42
  TRACK 98 AUDIO
    TITLE "0:"
    INDEX 01 02:11:74
  TRACK 99 AUDIO
    TITLE "18:cjc019_5161"
    INDEX 01 02:12:52
  TRACK 100 AUDIO
    TITLE "0:"
    INDEX 01 02:16:17
  TRACK 101 AUDIO
    TITLE "17:cjc019_5162"
    INDEX 01 02:16:72
  TRACK 102 AUDIO
    TITLE "0:"
    INDEX 01 02:18:33
  TRACK 103 AUDIO
    TITLE "16:cjc019_5163"
    INDEX 01 02:20:16
  TRACK 104 AUDIO
    TITLE "0:"
    INDEX 01 02:21:43
  TRACK 105 AUDIO
    TITLE "18:cjc019_5164"
    INDEX 01 02:22:23
  TRACK 106 AUDIO
    TITLE "0:"
    INDEX 01 02:24:44
  TRACK 107 AUDIO
    TITLE "17:cjc019_5165"
    INDEX 01 02:25:23
  TRACK 108 AUDIO
    TITLE "0:"
    INDEX 01 02:26:52
